<?xml version="1.0" encoding="UTF-8" standalone="no"?><svg xmlns="http://www.w3.org/2000/svg" xmlns:xlink="http://www.w3.org/1999/xlink" contentScriptType="application/ecmascript" contentStyleType="text/css" height="174px" preserveAspectRatio="none" style="width:308px;height:174px;" version="1.1" viewBox="0 0 308 174" width="308px" zoomAndPan="magnify"><defs><filter height="300%" id="f9kx33segs31p" width="300%" x="-1" y="-1"><feGaussianBlur result="blurOut" stdDeviation="2.0"/><feColorMatrix in="blurOut" result="blurOut2" type="matrix" values="0 0 0 0 0 0 0 0 0 0 0 0 0 0 0 0 0 0 .4 0"/><feOffset dx="4.0" dy="4.0" in="blurOut2" result="blurOut3"/><feBlend in="SourceGraphic" in2="blurOut3" mode="normal"/></filter></defs><g><!--MD5=[0eb94424ad8c3e19b999f109cc7ce4ef]
cluster システムA--><rect fill="#FFFFFF" filter="url(#f9kx33segs31p)" height="155" style="stroke:#000000;stroke-width:1.5;" width="190" x="106" y="7"/><text fill="#000000" font-family="sans-serif" font-size="14" font-weight="bold" lengthAdjust="spacing" textLength="69" x="166.5" y="23.5332">システムA</text><ellipse cx="201.0785" cy="61.2157" fill="#FEFECE" filter="url(#f9kx33segs31p)" rx="79.0785" ry="18.2157" style="stroke:#A80036;stroke-width:1.5;"/><text fill="#000000" font-family="sans-serif" font-size="14" lengthAdjust="spacing" textLength="112" x="143.6751" y="65.3395">アカウントを作る</text><ellipse cx="200.7688" cy="130.1538" fill="#FEFECE" filter="url(#f9kx33segs31p)" rx="68.7688" ry="16.1538" style="stroke:#A80036;stroke-width:1.5;"/><text fill="#000000" font-family="sans-serif" font-size="14" lengthAdjust="spacing" textLength="84" x="155.7688" y="134.6704">ログインする</text><!--MD5=[dcdbfd077e02e4cf4f5f3db90961366d]
entity ユーザー--><ellipse cx="34" cy="64" fill="#FEFECE" filter="url(#f9kx33segs31p)" rx="8" ry="8" style="stroke:#A80036;stroke-width:1.5;"/><path d="M34,72 L34,99 M21,80 L47,80 M34,99 L21,114 M34,99 L47,114 " fill="none" filter="url(#f9kx33segs31p)" style="stroke:#A80036;stroke-width:1.5;"/><text fill="#000000" font-family="sans-serif" font-size="14" lengthAdjust="spacing" textLength="56" x="6" y="134.0332">ユーザー</text><!--MD5=[43c00181a25e41dd4cb58b13cfddc5f5]
link ユーザー to アカウントを作る--><path d="M62.25,90.22 C82.67,85.89 111.45,79.78 137.43,74.27 " fill="none" id="ユーザー-to-アカウントを作る" style="stroke:#A80036;stroke-width:1.0;"/><polygon fill="#A80036" points="142.59,73.18,132.9545,71.1411,137.6995,74.2208,134.6198,78.9659,142.59,73.18" style="stroke:#A80036;stroke-width:1.0;"/><!--MD5=[41d850af1a28916b5e07d1c1943e8259]
link ユーザー to ログインする--><path d="M62.25,101.61 C84.31,106.16 116.12,112.72 143.62,118.38 " fill="none" id="ユーザー-to-ログインする" style="stroke:#A80036;stroke-width:1.0;"/><polygon fill="#A80036" points="148.7,119.43,140.6849,113.7066,143.8016,118.4274,139.0807,121.5441,148.7,119.43" style="stroke:#A80036;stroke-width:1.0;"/><!--MD5=[d9b9cee0a5131ae713bb7616b91cb87c]
@startuml

left to right direction
actor ユーザー
rectangle システムA {
  ユーザー - -> (アカウントを作る)
  ユーザー - -> (ログインする)
}

@enduml

PlantUML version 1.2021.00(Sun Jan 10 19:25:05 JST 2021)
(GPL source distribution)
Java Runtime: Java(TM) SE Runtime Environment
JVM: Java HotSpot(TM) 64-Bit Server VM
Default Encoding: MS932
Language: ja
Country: JP
--></g></svg>