<?xml version="1.0" encoding="UTF-8" standalone="no"?><svg xmlns="http://www.w3.org/2000/svg" xmlns:xlink="http://www.w3.org/1999/xlink" contentScriptType="application/ecmascript" contentStyleType="text/css" height="168px" preserveAspectRatio="none" style="width:276px;height:168px;" version="1.1" viewBox="0 0 276 168" width="276px" zoomAndPan="magnify"><defs><filter height="300%" id="f1n0vudlcw44wu" width="300%" x="-1" y="-1"><feGaussianBlur result="blurOut" stdDeviation="2.0"/><feColorMatrix in="blurOut" result="blurOut2" type="matrix" values="0 0 0 0 0 0 0 0 0 0 0 0 0 0 0 0 0 0 .4 0"/><feOffset dx="4.0" dy="4.0" in="blurOut2" result="blurOut3"/><feBlend in="SourceGraphic" in2="blurOut3" mode="normal"/></filter></defs><g><rect fill="#FFFFFF" filter="url(#f1n0vudlcw44wu)" height="48.3516" style="stroke:#000000;stroke-width:2.0;" width="252" x="10" y="58.6094"/><rect fill="#FFFFFF" height="16" style="stroke:none;stroke-width:1.0;" width="252" x="10" y="90.9609"/><line style="stroke:#A80036;stroke-width:1.0;stroke-dasharray:5.0,5.0;" x1="75" x2="75" y1="41.6094" y2="123.9609"/><line style="stroke:#A80036;stroke-width:1.0;stroke-dasharray:5.0,5.0;" x1="196" x2="196" y1="41.6094" y2="123.9609"/><rect fill="#FEFECE" filter="url(#f1n0vudlcw44wu)" height="31.6094" style="stroke:#A80036;stroke-width:1.5;" width="107" x="20" y="5"/><text fill="#000000" font-family="sans-serif" font-size="14" lengthAdjust="spacing" textLength="93" x="27" y="26.5332">ライフラインA</text><rect fill="#FEFECE" filter="url(#f1n0vudlcw44wu)" height="31.6094" style="stroke:#A80036;stroke-width:1.5;" width="107" x="20" y="122.9609"/><text fill="#000000" font-family="sans-serif" font-size="14" lengthAdjust="spacing" textLength="93" x="27" y="144.4941">ライフラインA</text><rect fill="#FEFECE" filter="url(#f1n0vudlcw44wu)" height="31.6094" style="stroke:#A80036;stroke-width:1.5;" width="107" x="141" y="5"/><text fill="#000000" font-family="sans-serif" font-size="14" lengthAdjust="spacing" textLength="93" x="148" y="26.5332">ライフラインB</text><rect fill="#FEFECE" filter="url(#f1n0vudlcw44wu)" height="31.6094" style="stroke:#A80036;stroke-width:1.5;" width="107" x="141" y="122.9609"/><text fill="#000000" font-family="sans-serif" font-size="14" lengthAdjust="spacing" textLength="93" x="148" y="144.4941">ライフラインB</text><path d="M10,58.6094 L76,58.6094 L76,66.6094 L66,76.6094 L10,76.6094 L10,58.6094 " fill="#EEEEEE" style="stroke:#000000;stroke-width:1.0;"/><rect fill="none" height="48.3516" style="stroke:#000000;stroke-width:2.0;" width="252" x="10" y="58.6094"/><text fill="#000000" font-family="sans-serif" font-size="13" font-weight="bold" lengthAdjust="spacing" textLength="21" x="25" y="73.1045">par</text><polygon fill="#A80036" points="184.5,78.9609,194.5,82.9609,184.5,86.9609,188.5,82.9609" style="stroke:#A80036;stroke-width:1.0;"/><line style="stroke:#A80036;stroke-width:1.0;stroke-dasharray:2.0,2.0;" x1="75.5" x2="190.5" y1="82.9609" y2="82.9609"/><line style="stroke:#000000;stroke-width:1.0;stroke-dasharray:2.0,2.0;" x1="10" x2="262" y1="91.9609" y2="91.9609"/><polygon fill="#A80036" points="184.5,94.9609,194.5,98.9609,184.5,102.9609,188.5,98.9609" style="stroke:#A80036;stroke-width:1.0;"/><line style="stroke:#A80036;stroke-width:1.0;stroke-dasharray:2.0,2.0;" x1="75.5" x2="190.5" y1="98.9609" y2="98.9609"/><!--MD5=[81dde832792f915d5896104bc3319cec]
@startuml

par
  ライフラインA - -> ライフラインB
else
  ライフラインA - -> ライフラインB
end

@enduml

PlantUML version 1.2021.00(Sun Jan 10 19:25:05 JST 2021)
(GPL source distribution)
Java Runtime: Java(TM) SE Runtime Environment
JVM: Java HotSpot(TM) 64-Bit Server VM
Default Encoding: MS932
Language: ja
Country: JP
--></g></svg>