<?xml version="1.0" encoding="UTF-8" standalone="no"?><svg xmlns="http://www.w3.org/2000/svg" xmlns:xlink="http://www.w3.org/1999/xlink" contentScriptType="application/ecmascript" contentStyleType="text/css" height="239px" preserveAspectRatio="none" style="width:429px;height:239px;" version="1.1" viewBox="0 0 429 239" width="429px" zoomAndPan="magnify"><defs><filter height="300%" id="f1svmui6wzbo7z" width="300%" x="-1" y="-1"><feGaussianBlur result="blurOut" stdDeviation="2.0"/><feColorMatrix in="blurOut" result="blurOut2" type="matrix" values="0 0 0 0 0 0 0 0 0 0 0 0 0 0 0 0 0 0 .4 0"/><feOffset dx="4.0" dy="4.0" in="blurOut2" result="blurOut3"/><feBlend in="SourceGraphic" in2="blurOut3" mode="normal"/></filter></defs><g><rect fill="#FFFFFF" filter="url(#f1svmui6wzbo7z)" height="118.8906" style="stroke:#000000;stroke-width:2.0;" width="406" x="9" y="58.6094"/><rect fill="#FFFFFF" height="29.8359" style="stroke:none;stroke-width:1.0;" width="406" x="9" y="147.6641"/><line style="stroke:#A80036;stroke-width:1.0;stroke-dasharray:5.0,5.0;" x1="228" x2="228" y1="41.6094" y2="194.5"/><line style="stroke:#A80036;stroke-width:1.0;stroke-dasharray:5.0,5.0;" x1="349" x2="349" y1="41.6094" y2="194.5"/><rect fill="#FEFECE" filter="url(#f1svmui6wzbo7z)" height="31.6094" style="stroke:#A80036;stroke-width:1.5;" width="107" x="173" y="5"/><text fill="#000000" font-family="sans-serif" font-size="14" lengthAdjust="spacing" textLength="93" x="180" y="26.5332">ライフラインA</text><rect fill="#FEFECE" filter="url(#f1svmui6wzbo7z)" height="31.6094" style="stroke:#A80036;stroke-width:1.5;" width="107" x="173" y="193.5"/><text fill="#000000" font-family="sans-serif" font-size="14" lengthAdjust="spacing" textLength="93" x="180" y="215.0332">ライフラインA</text><rect fill="#FEFECE" filter="url(#f1svmui6wzbo7z)" height="31.6094" style="stroke:#A80036;stroke-width:1.5;" width="107" x="294" y="5"/><text fill="#000000" font-family="sans-serif" font-size="14" lengthAdjust="spacing" textLength="93" x="301" y="26.5332">ライフラインB</text><rect fill="#FEFECE" filter="url(#f1svmui6wzbo7z)" height="31.6094" style="stroke:#A80036;stroke-width:1.5;" width="107" x="294" y="193.5"/><text fill="#000000" font-family="sans-serif" font-size="14" lengthAdjust="spacing" textLength="93" x="301" y="215.0332">ライフラインB</text><path d="M9,58.6094 L70,58.6094 L70,66.6094 L60,76.6094 L9,76.6094 L9,58.6094 " fill="#EEEEEE" style="stroke:#000000;stroke-width:1.0;"/><rect fill="none" height="118.8906" style="stroke:#000000;stroke-width:2.0;" width="406" x="9" y="58.6094"/><text fill="#000000" font-family="sans-serif" font-size="13" font-weight="bold" lengthAdjust="spacing" textLength="16" x="24" y="73.1045">alt</text><text fill="#000000" font-family="sans-serif" font-size="11" font-weight="bold" lengthAdjust="spacing" textLength="32" x="85" y="72.0283">[条件]</text><path d="M19,81.9609 L19,123.9609 L219,123.9609 L219,91.9609 L209,81.9609 L19,81.9609 " fill="#FBFB77" filter="url(#f1svmui6wzbo7z)" style="stroke:#A80036;stroke-width:1.0;"/><path d="M209,81.9609 L209,91.9609 L219,91.9609 L209,81.9609 " fill="#FBFB77" style="stroke:#A80036;stroke-width:1.0;"/><text fill="#000000" font-family="sans-serif" font-size="13" lengthAdjust="spacing" textLength="170" x="25" y="100.4561">「alt」→相互作用オペレータ</text><text fill="#000000" font-family="sans-serif" font-size="13" lengthAdjust="spacing" textLength="179" x="25" y="116.8076">［条件]や[else]→相互作用制約</text><polygon fill="#A80036" points="337.5,135.6641,347.5,139.6641,337.5,143.6641,341.5,139.6641" style="stroke:#A80036;stroke-width:1.0;"/><line style="stroke:#A80036;stroke-width:1.0;stroke-dasharray:2.0,2.0;" x1="228.5" x2="343.5" y1="139.6641" y2="139.6641"/><line style="stroke:#000000;stroke-width:1.0;stroke-dasharray:2.0,2.0;" x1="9" x2="415" y1="148.6641" y2="148.6641"/><text fill="#000000" font-family="sans-serif" font-size="11" font-weight="bold" lengthAdjust="spacing" textLength="32" x="14" y="160.083">[else]</text><polygon fill="#A80036" points="337.5,165.5,347.5,169.5,337.5,173.5,341.5,169.5" style="stroke:#A80036;stroke-width:1.0;"/><line style="stroke:#A80036;stroke-width:1.0;stroke-dasharray:2.0,2.0;" x1="228.5" x2="343.5" y1="169.5" y2="169.5"/><!--MD5=[d69b1c571a1fc3c217b4ebcd29cf340a]
@startuml
alt 条件
note left ライフラインA: 「alt」→相互作用オペレータ\n［条件]や[else]→相互作用制約
  ライフラインA - -> ライフラインB 
else else
  ライフラインA - -> ライフラインB
end

@enduml

PlantUML version 1.2021.00(Sun Jan 10 19:25:05 JST 2021)
(GPL source distribution)
Java Runtime: Java(TM) SE Runtime Environment
JVM: Java HotSpot(TM) 64-Bit Server VM
Default Encoding: MS932
Language: ja
Country: JP
--></g></svg>