<?xml version="1.0" encoding="UTF-8" standalone="no"?><svg xmlns="http://www.w3.org/2000/svg" xmlns:xlink="http://www.w3.org/1999/xlink" contentScriptType="application/ecmascript" contentStyleType="text/css" height="204px" preserveAspectRatio="none" style="width:255px;height:204px;" version="1.1" viewBox="0 0 255 204" width="255px" zoomAndPan="magnify"><defs><filter height="300%" id="f1l29d56iaarfp" width="300%" x="-1" y="-1"><feGaussianBlur result="blurOut" stdDeviation="2.0"/><feColorMatrix in="blurOut" result="blurOut2" type="matrix" values="0 0 0 0 0 0 0 0 0 0 0 0 0 0 0 0 0 0 .4 0"/><feOffset dx="4.0" dy="4.0" in="blurOut2" result="blurOut3"/><feBlend in="SourceGraphic" in2="blurOut3" mode="normal"/></filter></defs><g><ellipse cx="124.5" cy="20" fill="#000000" filter="url(#f1l29d56iaarfp)" rx="10" ry="10" style="stroke:none;stroke-width:1.0;"/><rect fill="#000000" filter="url(#f1l29d56iaarfp)" height="6" rx="2.5" ry="2.5" style="stroke:#000000;stroke-width:1.0;" width="227" x="11" y="50"/><rect fill="#FEFECE" filter="url(#f1l29d56iaarfp)" height="35.0938" rx="12.5" ry="12.5" style="stroke:#A80036;stroke-width:1.5;" width="87" x="23" y="76"/><text fill="#000000" font-family="sans-serif" font-size="12" lengthAdjust="spacing" textLength="67" x="33" y="98.457">アクションA</text><rect fill="#FEFECE" filter="url(#f1l29d56iaarfp)" height="35.0938" rx="12.5" ry="12.5" style="stroke:#A80036;stroke-width:1.5;" width="88" x="138" y="76"/><text fill="#000000" font-family="sans-serif" font-size="12" lengthAdjust="spacing" textLength="68" x="148" y="98.457">アクションB</text><polygon fill="#FEFECE" filter="url(#f1l29d56iaarfp)" points="124.5,121.0938,136.5,133.0938,124.5,145.0938,112.5,133.0938,124.5,121.0938" style="stroke:#A80036;stroke-width:1.5;"/><ellipse cx="124.5" cy="176.0938" fill="#FFFFFF" filter="url(#f1l29d56iaarfp)" rx="11" ry="11" style="stroke:#000000;stroke-width:1.0;"/><ellipse cx="124.5" cy="176.0938" fill="#000000" rx="6" ry="6" style="stroke:#7F7F7F;stroke-width:1.0;"/><line style="stroke:#A80036;stroke-width:1.5;" x1="66.5" x2="66.5" y1="56" y2="76"/><polygon fill="#A80036" points="62.5,66,66.5,76,70.5,66,66.5,70" style="stroke:#A80036;stroke-width:1.0;"/><line style="stroke:#A80036;stroke-width:1.5;" x1="182" x2="182" y1="56" y2="76"/><polygon fill="#A80036" points="178,66,182,76,186,66,182,70" style="stroke:#A80036;stroke-width:1.0;"/><line style="stroke:#A80036;stroke-width:1.5;" x1="66.5" x2="66.5" y1="111.0938" y2="133.0938"/><line style="stroke:#A80036;stroke-width:1.5;" x1="66.5" x2="112.5" y1="133.0938" y2="133.0938"/><polygon fill="#A80036" points="102.5,129.0938,112.5,133.0938,102.5,137.0938,106.5,133.0938" style="stroke:#A80036;stroke-width:1.0;"/><line style="stroke:#A80036;stroke-width:1.5;" x1="182" x2="182" y1="111.0938" y2="133.0938"/><line style="stroke:#A80036;stroke-width:1.5;" x1="182" x2="136.5" y1="133.0938" y2="133.0938"/><polygon fill="#A80036" points="146.5,129.0938,136.5,133.0938,146.5,137.0938,142.5,133.0938" style="stroke:#A80036;stroke-width:1.0;"/><line style="stroke:#A80036;stroke-width:1.5;" x1="124.5" x2="124.5" y1="30" y2="50"/><polygon fill="#A80036" points="120.5,40,124.5,50,128.5,40,124.5,44" style="stroke:#A80036;stroke-width:1.0;"/><line style="stroke:#A80036;stroke-width:1.5;" x1="124.5" x2="124.5" y1="145.0938" y2="165.0938"/><polygon fill="#A80036" points="120.5,155.0938,124.5,165.0938,128.5,155.0938,124.5,159.0938" style="stroke:#A80036;stroke-width:1.0;"/><!--MD5=[0df15febca6dddd86897d013e2f84023]
@startuml

start
fork
:アクションA;
fork again
:アクションB;
end merge
stop

@enduml

PlantUML version 1.2021.00(Sun Jan 10 19:25:05 JST 2021)
(GPL source distribution)
Java Runtime: Java(TM) SE Runtime Environment
JVM: Java HotSpot(TM) 64-Bit Server VM
Default Encoding: MS932
Language: ja
Country: JP
--></g></svg>