<?xml version="1.0" encoding="UTF-8" standalone="no"?><svg xmlns="http://www.w3.org/2000/svg" xmlns:xlink="http://www.w3.org/1999/xlink" contentScriptType="application/ecmascript" contentStyleType="text/css" height="172px" preserveAspectRatio="none" style="width:213px;height:172px;" version="1.1" viewBox="0 0 213 172" width="213px" zoomAndPan="magnify"><defs><filter height="300%" id="f1vfzebfb5lxm" width="300%" x="-1" y="-1"><feGaussianBlur result="blurOut" stdDeviation="2.0"/><feColorMatrix in="blurOut" result="blurOut2" type="matrix" values="0 0 0 0 0 0 0 0 0 0 0 0 0 0 0 0 0 0 .4 0"/><feOffset dx="4.0" dy="4.0" in="blurOut2" result="blurOut3"/><feBlend in="SourceGraphic" in2="blurOut3" mode="normal"/></filter></defs><g><ellipse cx="40.5" cy="50.0957" fill="#000000" filter="url(#f1vfzebfb5lxm)" rx="10" ry="10" style="stroke:none;stroke-width:1.0;"/><line style="stroke:#000000;stroke-width:2.0;" x1="15" x2="15" y1="12.4551" y2="155.1895"/><polygon fill="#FEFECE" filter="url(#f1vfzebfb5lxm)" points="86,80.0957,179,80.0957,169,97.6426,179,115.1895,86,115.1895" style="stroke:#A80036;stroke-width:1.5;"/><text fill="#000000" font-family="sans-serif" font-size="12" lengthAdjust="spacing" textLength="60" x="99" y="102.5527">アクション</text><ellipse cx="127.5" cy="145.1895" fill="#FFFFFF" filter="url(#f1vfzebfb5lxm)" rx="10" ry="10" style="stroke:#000000;stroke-width:1.5;"/><line style="stroke:#000000;stroke-width:2.5;" x1="121.3128" x2="133.6872" y1="139.0023" y2="151.3766"/><line style="stroke:#000000;stroke-width:2.5;" x1="133.6872" x2="121.3128" y1="139.0023" y2="151.3766"/><line style="stroke:#000000;stroke-width:2.0;" x1="71" x2="71" y1="12.4551" y2="155.1895"/><line style="stroke:#000000;stroke-width:2.0;" x1="194" x2="194" y1="12.4551" y2="155.1895"/><line style="stroke:#A80036;stroke-width:1.5;" x1="127.5" x2="127.5" y1="115.1895" y2="135.1895"/><polygon fill="#A80036" points="123.5,125.1895,127.5,135.1895,131.5,125.1895,127.5,129.1895" style="stroke:#A80036;stroke-width:1.0;"/><line style="stroke:#A80036;stroke-width:1.5;" x1="40.5" x2="40.5" y1="60.0957" y2="65.0957"/><line style="stroke:#A80036;stroke-width:1.5;" x1="40.5" x2="127.5" y1="65.0957" y2="65.0957"/><line style="stroke:#A80036;stroke-width:1.5;" x1="127.5" x2="127.5" y1="65.0957" y2="80.0957"/><polygon fill="#A80036" points="123.5,70.0957,127.5,80.0957,131.5,70.0957,127.5,74.0957" style="stroke:#A80036;stroke-width:1.0;"/><text fill="#000000" font-family="sans-serif" font-size="18" lengthAdjust="spacing" textLength="46" x="20" y="31.1406">Client</text><text fill="#000000" font-family="sans-serif" font-size="18" lengthAdjust="spacing" textLength="53" x="106" y="31.1406">Server</text><!--MD5=[81eb0e7d4ccba72cc89269a20a88d853]
@startuml

|Client|
start
|Server|
: アクション<
end

@enduml

PlantUML version 1.2021.00(Sun Jan 10 19:25:05 JST 2021)
(GPL source distribution)
Java Runtime: Java(TM) SE Runtime Environment
JVM: Java HotSpot(TM) 64-Bit Server VM
Default Encoding: MS932
Language: ja
Country: JP
--></g></svg>