<?xml version="1.0" encoding="UTF-8" standalone="no"?><svg xmlns="http://www.w3.org/2000/svg" xmlns:xlink="http://www.w3.org/1999/xlink" contentScriptType="application/ecmascript" contentStyleType="text/css" height="254px" preserveAspectRatio="none" style="width:127px;height:254px;" version="1.1" viewBox="0 0 127 254" width="127px" zoomAndPan="magnify"><defs><filter height="300%" id="f19i341lclvnt8" width="300%" x="-1" y="-1"><feGaussianBlur result="blurOut" stdDeviation="2.0"/><feColorMatrix in="blurOut" result="blurOut2" type="matrix" values="0 0 0 0 0 0 0 0 0 0 0 0 0 0 0 0 0 0 .4 0"/><feOffset dx="4.0" dy="4.0" in="blurOut2" result="blurOut3"/><feBlend in="SourceGraphic" in2="blurOut3" mode="normal"/></filter></defs><g><ellipse cx="60.5" cy="20" fill="#000000" filter="url(#f19i341lclvnt8)" rx="10" ry="10" style="stroke:none;stroke-width:1.0;"/><rect fill="#FEFECE" filter="url(#f19i341lclvnt8)" height="35.0938" rx="12.5" ry="12.5" style="stroke:#A80036;stroke-width:1.5;" width="87" x="17" y="50"/><text fill="#000000" font-family="sans-serif" font-size="12" lengthAdjust="spacing" textLength="67" x="27" y="72.457">アクションA</text><rect fill="#FEFECE" filter="url(#f19i341lclvnt8)" height="35.0938" style="stroke:#A80036;stroke-width:1.5;" width="99" x="11" y="105.0938"/><text fill="#000000" font-family="sans-serif" font-size="12" lengthAdjust="spacing" textLength="79" x="21" y="127.5508">オブジェクトA</text><rect fill="#FEFECE" filter="url(#f19i341lclvnt8)" height="35.0938" rx="12.5" ry="12.5" style="stroke:#A80036;stroke-width:1.5;" width="88" x="16.5" y="160.1875"/><text fill="#000000" font-family="sans-serif" font-size="12" lengthAdjust="spacing" textLength="68" x="26.5" y="182.6445">アクションB</text><ellipse cx="60.5" cy="226.2813" fill="#FFFFFF" filter="url(#f19i341lclvnt8)" rx="11" ry="11" style="stroke:#000000;stroke-width:1.0;"/><ellipse cx="60.5" cy="226.2813" fill="#000000" rx="6" ry="6" style="stroke:#7F7F7F;stroke-width:1.0;"/><line style="stroke:#A80036;stroke-width:1.5;" x1="60.5" x2="60.5" y1="30" y2="50"/><polygon fill="#A80036" points="56.5,40,60.5,50,64.5,40,60.5,44" style="stroke:#A80036;stroke-width:1.0;"/><line style="stroke:#A80036;stroke-width:1.5;" x1="60.5" x2="60.5" y1="85.0938" y2="105.0938"/><polygon fill="#A80036" points="56.5,95.0938,60.5,105.0938,64.5,95.0938,60.5,99.0938" style="stroke:#A80036;stroke-width:1.0;"/><line style="stroke:#A80036;stroke-width:1.5;" x1="60.5" x2="60.5" y1="140.1875" y2="160.1875"/><polygon fill="#A80036" points="56.5,150.1875,60.5,160.1875,64.5,150.1875,60.5,154.1875" style="stroke:#A80036;stroke-width:1.0;"/><line style="stroke:#A80036;stroke-width:1.5;" x1="60.5" x2="60.5" y1="195.2813" y2="215.2813"/><polygon fill="#A80036" points="56.5,205.2813,60.5,215.2813,64.5,205.2813,60.5,209.2813" style="stroke:#A80036;stroke-width:1.0;"/><!--MD5=[65189f8788e2c81ca43f8f7d94b716f0]
@startuml

start
:アクションA;
:オブジェクトA]
:アクションB;
stop

@enduml

PlantUML version 1.2021.00(Sun Jan 10 19:25:05 JST 2021)
(GPL source distribution)
Java Runtime: Java(TM) SE Runtime Environment
JVM: Java HotSpot(TM) 64-Bit Server VM
Default Encoding: MS932
Language: ja
Country: JP
--></g></svg>