<?xml version="1.0" encoding="UTF-8" standalone="no"?><svg xmlns="http://www.w3.org/2000/svg" xmlns:xlink="http://www.w3.org/1999/xlink" contentScriptType="application/ecmascript" contentStyleType="text/css" height="173px" preserveAspectRatio="none" style="width:117px;height:173px;" version="1.1" viewBox="0 0 117 173" width="117px" zoomAndPan="magnify"><defs><filter height="300%" id="frtgtrwk7hhf8" width="300%" x="-1" y="-1"><feGaussianBlur result="blurOut" stdDeviation="2.0"/><feColorMatrix in="blurOut" result="blurOut2" type="matrix" values="0 0 0 0 0 0 0 0 0 0 0 0 0 0 0 0 0 0 .4 0"/><feOffset dx="4.0" dy="4.0" in="blurOut2" result="blurOut3"/><feBlend in="SourceGraphic" in2="blurOut3" mode="normal"/></filter></defs><g><ellipse cx="58" cy="20" fill="#000000" filter="url(#frtgtrwk7hhf8)" rx="10" ry="10" style="stroke:none;stroke-width:1.0;"/><polygon fill="#FEFECE" filter="url(#frtgtrwk7hhf8)" points="58,50,58,50,70,62,58,74,58,74,46,62,58,50" style="stroke:#A80036;stroke-width:1.5;"/><text fill="#000000" font-family="sans-serif" font-size="11" lengthAdjust="spacing" textLength="36" x="10" y="59.583">[条件A]</text><text fill="#000000" font-family="sans-serif" font-size="11" lengthAdjust="spacing" textLength="35" x="70" y="59.583">[条件B]</text><polygon fill="#FEFECE" filter="url(#frtgtrwk7hhf8)" points="58,90,70,102,58,114,46,102,58,90" style="stroke:#A80036;stroke-width:1.5;"/><ellipse cx="58" cy="145" fill="#FFFFFF" filter="url(#frtgtrwk7hhf8)" rx="11" ry="11" style="stroke:#000000;stroke-width:1.0;"/><ellipse cx="58" cy="145" fill="#000000" rx="6" ry="6" style="stroke:#7F7F7F;stroke-width:1.0;"/><line style="stroke:#A80036;stroke-width:1.5;" x1="46" x2="33" y1="62" y2="62"/><polygon fill="#A80036" points="29,72,33,82,37,72,33,76" style="stroke:#A80036;stroke-width:1.5;"/><line style="stroke:#A80036;stroke-width:1.5;" x1="33" x2="33" y1="62" y2="102"/><line style="stroke:#A80036;stroke-width:1.5;" x1="33" x2="46" y1="102" y2="102"/><polygon fill="#A80036" points="36,98,46,102,36,106,40,102" style="stroke:#A80036;stroke-width:1.0;"/><line style="stroke:#A80036;stroke-width:1.5;" x1="70" x2="83" y1="62" y2="62"/><polygon fill="#A80036" points="79,72,83,82,87,72,83,76" style="stroke:#A80036;stroke-width:1.5;"/><line style="stroke:#A80036;stroke-width:1.5;" x1="83" x2="83" y1="62" y2="102"/><line style="stroke:#A80036;stroke-width:1.5;" x1="83" x2="70" y1="102" y2="102"/><polygon fill="#A80036" points="80,98,70,102,80,106,76,102" style="stroke:#A80036;stroke-width:1.0;"/><line style="stroke:#A80036;stroke-width:1.5;" x1="58" x2="58" y1="30" y2="50"/><polygon fill="#A80036" points="54,40,58,50,62,40,58,44" style="stroke:#A80036;stroke-width:1.0;"/><line style="stroke:#A80036;stroke-width:1.5;" x1="58" x2="58" y1="114" y2="134"/><polygon fill="#A80036" points="54,124,58,134,62,124,58,128" style="stroke:#A80036;stroke-width:1.0;"/><!--MD5=[2fb6dd0f2d08a73f0197870cacb6487f]
@startuml

start

if () then ([条件A])
else ([条件B])
endif

stop

@enduml

PlantUML version 1.2021.00(Sun Jan 10 19:25:05 JST 2021)
(GPL source distribution)
Java Runtime: Java(TM) SE Runtime Environment
JVM: Java HotSpot(TM) 64-Bit Server VM
Default Encoding: MS932
Language: ja
Country: JP
--></g></svg>