<?xml version="1.0" encoding="UTF-8" standalone="no"?><svg xmlns="http://www.w3.org/2000/svg" xmlns:xlink="http://www.w3.org/1999/xlink" contentScriptType="application/ecmascript" contentStyleType="text/css" height="419px" preserveAspectRatio="none" style="width:222px;height:419px;" version="1.1" viewBox="0 0 222 419" width="222px" zoomAndPan="magnify"><defs><filter height="300%" id="fiuqbhsul2kn1" width="300%" x="-1" y="-1"><feGaussianBlur result="blurOut" stdDeviation="2.0"/><feColorMatrix in="blurOut" result="blurOut2" type="matrix" values="0 0 0 0 0 0 0 0 0 0 0 0 0 0 0 0 0 0 .4 0"/><feOffset dx="4.0" dy="4.0" in="blurOut2" result="blurOut3"/><feBlend in="SourceGraphic" in2="blurOut3" mode="normal"/></filter></defs><g><ellipse cx="108" cy="16" fill="#000000" filter="url(#fiuqbhsul2kn1)" rx="10" ry="10" style="stroke:none;stroke-width:1.0;"/><rect fill="#FEFECE" filter="url(#fiuqbhsul2kn1)" height="35.0938" rx="12.5" ry="12.5" style="stroke:#A80036;stroke-width:1.5;" width="87" x="64.5" y="66"/><text fill="#000000" font-family="sans-serif" font-size="12" lengthAdjust="spacing" textLength="67" x="74.5" y="88.457">アクションA</text><rect fill="#000000" filter="url(#fiuqbhsul2kn1)" height="8" style="stroke:none;stroke-width:1.0;" width="80" x="68" y="141"/><rect fill="#FEFECE" filter="url(#fiuqbhsul2kn1)" height="35.0938" rx="12.5" ry="12.5" style="stroke:#A80036;stroke-width:1.5;" width="92" x="7" y="189"/><text fill="#000000" font-family="sans-serif" font-size="12" lengthAdjust="spacing" textLength="72" x="17" y="211.457">アクションＢ</text><rect fill="#000000" filter="url(#fiuqbhsul2kn1)" height="8" style="stroke:none;stroke-width:1.0;" width="80" x="68" y="264"/><rect fill="#FEFECE" filter="url(#fiuqbhsul2kn1)" height="35.0938" rx="12.5" ry="12.5" style="stroke:#A80036;stroke-width:1.5;" width="89" x="119.5" y="189"/><text fill="#000000" font-family="sans-serif" font-size="12" lengthAdjust="spacing" textLength="69" x="129.5" y="211.457">アクションC</text><rect fill="#FEFECE" filter="url(#fiuqbhsul2kn1)" height="35.0938" rx="12.5" ry="12.5" style="stroke:#A80036;stroke-width:1.5;" width="89" x="63.5" y="312"/><text fill="#000000" font-family="sans-serif" font-size="12" lengthAdjust="spacing" textLength="69" x="73.5" y="334.457">アクションD</text><ellipse cx="108" cy="397" fill="none" filter="url(#fiuqbhsul2kn1)" rx="10" ry="10" style="stroke:#000000;stroke-width:1.0;"/><ellipse cx="108.5" cy="397.5" fill="#000000" rx="6" ry="6" style="stroke:none;stroke-width:1.0;"/><!--MD5=[d918395b2be6a11eab507bc91ae82e71]
link start to アクションA--><path d="M108,26.11 C108,35.01 108,48.9 108,60.67 " fill="none" id="start-to-アクションA" style="stroke:#A80036;stroke-width:1.0;"/><polygon fill="#A80036" points="108,65.9,112,56.9,108,60.9,104,56.9,108,65.9" style="stroke:#A80036;stroke-width:1.0;"/><!--MD5=[760a7d3bd67116d863d1b7e7f365931a]
link アクションA to FORK--><path d="M108,101.07 C108,112.25 108,126.53 108,135.48 " fill="none" id="アクションA-to-FORK" style="stroke:#A80036;stroke-width:1.0;"/><polygon fill="#A80036" points="108,140.71,112,131.71,108,135.71,104,131.71,108,140.71" style="stroke:#A80036;stroke-width:1.0;"/><!--MD5=[d7ee05d4a870e3425c906bdfc8a87275]
link FORK to アクションＢ--><path d="M105.04,149.2 C98.9,155.85 84.3,171.64 72.12,184.82 " fill="none" id="FORK-to-アクションＢ" style="stroke:#A80036;stroke-width:1.0;"/><polygon fill="#A80036" points="68.43,188.81,77.4718,184.9055,71.8196,185.1343,71.5908,179.4821,68.43,188.81" style="stroke:#A80036;stroke-width:1.0;"/><!--MD5=[345071d86e44d75ba87281b7076240bf]
link アクションＢ to JOIN--><path d="M68.32,224.07 C79.25,235.89 93.39,251.19 101.5,259.97 " fill="none" id="アクションＢ-to-JOIN" style="stroke:#A80036;stroke-width:1.0;"/><polygon fill="#A80036" points="104.96,263.71,101.7796,254.3888,101.5627,260.0415,95.91,259.8245,104.96,263.71" style="stroke:#A80036;stroke-width:1.0;"/><!--MD5=[31a250d2069a975c2b00697dcb0e7811]
link FORK to アクションC--><path d="M111.01,149.2 C117.32,155.91 132.39,171.92 144.85,185.16 " fill="none" id="FORK-to-アクションC" style="stroke:#A80036;stroke-width:1.0;"/><polygon fill="#A80036" points="148.29,188.81,145.0345,179.5147,144.8632,185.169,139.2089,184.9977,148.29,188.81" style="stroke:#A80036;stroke-width:1.0;"/><!--MD5=[03094e5523cd7869043697fbac880b1d]
link アクションC to JOIN--><path d="M148.4,224.07 C137.28,235.89 122.88,251.19 114.62,259.97 " fill="none" id="アクションC-to-JOIN" style="stroke:#A80036;stroke-width:1.0;"/><polygon fill="#A80036" points="111.1,263.71,120.1811,259.8977,114.5268,260.069,114.3555,254.4147,111.1,263.71" style="stroke:#A80036;stroke-width:1.0;"/><!--MD5=[f65368e66f265ec2569bbb84224d82d3]
link JOIN to アクションD--><path d="M108,272.2 C108,278.68 108,293.83 108,306.79 " fill="none" id="JOIN-to-アクションD" style="stroke:#A80036;stroke-width:1.0;"/><polygon fill="#A80036" points="108,311.81,112,302.81,108,306.81,104,302.81,108,311.81" style="stroke:#A80036;stroke-width:1.0;"/><!--MD5=[bc8e1ab01a59d91c85b7fa53732dc7d8]
link アクションD to end--><path d="M108,347.03 C108,357.64 108,371.3 108,381.5 " fill="none" id="アクションD-to-end" style="stroke:#A80036;stroke-width:1.0;"/><polygon fill="#A80036" points="108,386.76,112,377.76,108,381.76,104,377.76,108,386.76" style="stroke:#A80036;stroke-width:1.0;"/><!--MD5=[20e0c28e57edb7a2f5496bd00729a6c7]
@startuml

(*) - -> "アクションA"

- -> ===FORK=== 
- -> "アクションＢ"
- -> ===JOIN===

===FORK=== - -> "アクションC"
- -> ===JOIN===

- -> "アクションD"
- -> (*)

@enduml

PlantUML version 1.2021.00(Sun Jan 10 19:25:05 JST 2021)
(GPL source distribution)
Java Runtime: Java(TM) SE Runtime Environment
JVM: Java HotSpot(TM) 64-Bit Server VM
Default Encoding: MS932
Language: ja
Country: JP
--></g></svg>